<svg t="1709733453304" class="icon" viewBox="0 0 1024 1024" version="1.1" xmlns="http://www.w3.org/2000/svg" p-id="15751" width="200" height="200"><path d="M451.754667 481.877333h-210.816C108.096 481.877333 0 373.802667 0 240.938667 0 108.096 108.096 0 240.938667 0s240.938667 108.096 240.938666 240.938667v210.816c0 16.64-13.482667 30.122667-30.122666 30.122666zM240.938667 60.245333c-99.648 0-180.693333 81.066667-180.693334 180.693334 0 99.648 81.045333 180.714667 180.693334 180.714666h180.693333v-180.714666c0-99.626667-81.066667-180.693333-180.693333-180.693334z m542.122666 421.632h-210.816c-16.64 0-30.122667-13.482667-30.122666-30.101333v-210.837333C542.122667 108.096 650.197333 0 783.061333 0 915.925333 0 1024 108.096 1024 240.938667s-108.096 240.938667-240.938667 240.938666z m-180.693333-60.224h180.693333c99.648 0 180.693333-81.066667 180.693334-180.693333 0-99.648-81.045333-180.714667-180.693334-180.714667-99.626667 0-180.693333 81.066667-180.693333 180.693334v180.693333zM240.917333 1024C108.096 1024 0 915.925333 0 783.061333c0-132.864 108.096-240.938667 240.938667-240.938666h210.816c16.64 0 30.122667 13.482667 30.122666 30.101333v210.837333C481.877333 915.925333 373.802667 1024 240.938667 1024z m0-421.653333c-99.648 0-180.693333 81.066667-180.693333 180.714666s81.045333 180.693333 180.693333 180.693334c99.626667 0 180.693333-81.045333 180.693334-180.693334v-180.693333h-180.693334zM783.061333 1024c-132.864 0-240.938667-108.074667-240.938666-240.938667v-210.816c0-16.64 13.482667-30.122667 30.122666-30.122666h210.816C915.925333 542.122667 1024 650.24 1024 783.061333S915.904 1024 783.061333 1024z m-180.693333-421.653333v180.714666c0 99.626667 81.066667 180.693333 180.693333 180.693334 99.648 0 180.693333-81.066667 180.693334-180.693334 0-99.626667-81.045333-180.693333-180.693334-180.693333h-180.693333z" fill="#bfbfbf" p-id="15752"></path></svg>