<?xml version="1.0" standalone="no"?><!DOCTYPE svg PUBLIC "-//W3C//DTD SVG 1.1//EN" "http://www.w3.org/Graphics/SVG/1.1/DTD/svg11.dtd"><svg t="1709466350449" class="icon" viewBox="0 0 1024 1024" version="1.1" xmlns="http://www.w3.org/2000/svg" p-id="14237" xmlns:xlink="http://www.w3.org/1999/xlink" width="200" height="200"><path d="M409.6 0h204.8c225.28 0 409.6 184.32 409.6 409.6v204.8c0 225.28-184.32 409.6-409.6 409.6H409.6c-225.28 0-409.6-184.32-409.6-409.6V409.6c0-225.28 184.32-409.6 409.6-409.6z" fill="#10CC77" p-id="14238"></path><path d="M460.8 281.6H317.44c-20.48 0-35.84 15.36-35.84 35.84V460.8c0 20.48 15.36 35.84 35.84 35.84H460.8c20.48 0 35.84-15.36 35.84-35.84V317.44c0-20.48-20.48-35.84-35.84-35.84zM460.8 527.36H317.44c-20.48 0-35.84 15.36-35.84 35.84v143.36c0 20.48 15.36 35.84 35.84 35.84H460.8c20.48 0 35.84-15.36 35.84-35.84V563.2c0-15.36-20.48-35.84-35.84-35.84zM706.56 281.6H563.2c-20.48 0-35.84 15.36-35.84 35.84V460.8c0 20.48 15.36 35.84 35.84 35.84h143.36c20.48 0 35.84-15.36 35.84-35.84V317.44c0-20.48-15.36-35.84-35.84-35.84zM655.36 655.36v71.68c0 10.24-10.24 15.36-15.36 15.36-10.24 0-15.36-10.24-15.36-15.36v-71.68h-71.68c-10.24 0-15.36-10.24-15.36-15.36 0-10.24 10.24-15.36 15.36-15.36h71.68v-71.68c0-5.12 0-10.24 5.12-10.24 5.12-5.12 10.24-5.12 10.24-5.12 5.12 0 10.24 0 10.24 5.12 5.12 5.12 5.12 10.24 5.12 10.24v71.68h71.68c10.24 0 15.36 10.24 15.36 15.36 0 10.24-10.24 15.36-15.36 15.36h-71.68z" fill="#FFFFFF" p-id="14239"></path></svg>